<svg version="1" xmlns="http://www.w3.org/2000/svg" width="853.333" height="853.333" viewBox="0 0 640.000000 640.000000"><path d="M490.7 67.7c-1.4 1.3-.6 3.2 2.3 6 1.7 1.5 3 3.1 3 3.5 0 .5-1.8.8-3.9.8-5.2 0-7.1.8-7.1 3.1 0 2.8 2.6 3.6 15.1 4.3 9.2.5 11.9.3 13.5-.8 1.5-1.2 1.7-1.8.8-3.3-.8-1.3-2.8-1.9-7-2.3-5.6-.5-5.9-.6-6-3.3-.2-5-7.9-10.8-10.7-8zM538.3 68.2c-.6.7-1.3 2.1-1.6 3-.4 1.2-1.7 1.8-3.9 1.8-7 0-8 4.7-1.5 6.5 4.7 1.3 5.2 2.9 1 3.3-5.1.5-5.3 5.1-.2 5.2 1.9 0 4.2 2.4 3.2 3.3-.3.4-2 .7-3.7.7-5 0-7.6 1.1-7.6 3.1 0 1 .4 2 .8 2.3 1.5.9 26.3 2.8 28.8 2.2 2.6-.7 3.3-3.9 1.2-5.3-.7-.4-3.8-1-6.8-1.3-4-.4-5.5-.9-5.5-2 0-.9.8-1.4 2-1.3 4.1.5 6.6-.7 6.3-3-.2-1.5-1.3-2.4-4-3-4.4-1-5.1-2.7-1.1-2.7 1.4 0 3.5-.7 4.4-1.6 2.6-2.3.8-5.4-3.1-5.4-2.4 0-3.2-.6-4.4-3.5-1.6-3.7-2.7-4.3-4.3-2.3zM489.5 90.3c-3.7 2.8-.4 4.4 10.1 5.2 9.6.8 12.4.1 12.4-3.1 0-1.7-1.8-2.1-12-2.9-6.6-.5-8.9-.3-10.5.8zM489.9 101.6c-1.1 1.4-1 1.8.6 3 2.7 2 18.8 1.9 20.5-.1 1-1.2 1-1.8 0-3-1.9-2.2-19.2-2.1-21.1.1zM529.8 104.7c-1 .2-2 1.4-2.2 2.6-1.4 7.1-3.6 26.9-3.1 27.7 1.4 2.3 4.5.9 6-2.6 1.1-2.6 1.9-3.4 3.1-3 .8.3 3.3.6 5.5.6 2.8 0 3.9.4 3.9 1.5 0 .8-.8 1.5-1.9 1.5-2.4 0-4.2 2.2-3.2 3.8 1.2 1.9 6.9 3.2 9.7 2.2 3.5-1.4 4-3.9 3.7-19-.2-11.4-.5-13.7-1.9-14.7-1.7-1.3-15.6-1.7-19.6-.6zm14.2 7.8c0 1.2-1.3 1.5-5.5 1.5s-5.5-.3-5.5-1.5 1.3-1.5 5.5-1.5 5.5.3 5.5 1.5zm-.7 10c-.4 1.5-9.6 1.2-10.1-.3-.3-1 .9-1.2 4.9-1 3 .2 5.3.7 5.2 1.3zM491 111.9c-2.3.6-2.6 1.3-3.2 7.9-.4 4-.3 8.3.2 9.6 1.1 3.1 6.1 4.6 15.1 4.6 8.8 0 9.9-1.3 10.6-11.8.5-7.5.4-8-1.8-9.6-1.7-1.2-4.4-1.6-10.4-1.5-4.4.1-9.1.4-10.5.8zm15.5 7.3c.3.7.1 2.6-.3 4.3-.8 2.9-1.1 3-6.3 3h-5.4l-.3-4.3-.3-4.2h6.1c3.9 0 6.2.4 6.5 1.2zM419.1 122.2c-2.7 2.4-6.6 5.7-8.8 7.5-3.5 2.9-3.7 3.2-2.2 4.8 2.7 2.8 7.2 1 13.9-5.4 6.3-6 7.3-8.4 4-10.1-1.6-.8-2.7-.3-6.9 3.2zM453.4 127.4c-.6 1.6 2.7 8.6 5 10.5 1.9 1.6 4.6 1.1 5.9-1.1.9-1.3.3-2.6-2.7-6.2-3.7-4.6-7.2-5.9-8.2-3.2zM442.7 129.7c-.4.3-.7 3.3-.7 6.5v5.8h-5.9c-7.7 0-9.1-.6-9.1-4 0-3.6-3-7.3-4.9-6.1-.8.5-1.7 2.6-2 4.7-.6 3.8-.7 3.9-5.1 3.9-4.9 0-7 .9-7 2.9 0 2.2 2.9 3.9 7.3 4.5 3.8.6 4.2.9 4.5 3.8.3 3 .1 3.2-3.5 3.8-5.5.9-6.3 1.3-6.9 3-1 2.6 1.5 4.5 6.2 4.5h4.4v4c0 4.7-1.8 6-5.2 3.6-3.1-2.2-5.5-2-6.9.5-1.4 2.7 1.7 6.2 7.7 8.5 4.1 1.5 4.5 1.5 6.9 0 3.1-2.1 4.5-5.4 4.5-10.9 0-5.3.7-6.3 4.9-7.4 6.9-1.8 6.9-7.3.1-7.3-3.6 0-4-.2-4-2.5 0-2.2.4-2.5 3.3-2.4 1.7 0 5 .3 7.2.7l4 .7.7 6.3c.4 3.4 1 7.1 1.3 8.2.4 1.2-.4 3-2.5 5.4-1.8 1.9-3 4.3-2.8 5.3.4 2.1 4.3 2.9 6.2 1.4.9-.8 2-.3 4.1 1.9 5.2 5.4 14 4.8 17-1 1.2-2.3 1.2-3 0-4.6-1.3-1.9-1.4-1.9-5 0-2.7 1.5-4.1 1.7-5.3 1-3.9-2.5-3.6-3.9 1.7-10.9 5.3-6.9 5.7-8.1 2.8-9.9-1.3-.8-2.3-.4-5.1 2.3-4 3.8-5.6 3.4-5.6-1.5V151h6.1c6.9 0 9.9-1.2 9.9-4 0-2.7-2.5-3.7-9.4-3.9-3.2-.1-6.2-.4-6.6-.6-.4-.3-1-2.8-1.4-5.7-.4-2.9-1.2-5.8-1.8-6.5-1.1-1.4-3.1-1.7-4.1-.6zM487.2 147.9c-2 1.2-6.1 37.7-4.7 42 .7 2.3 4.9 2.9 6.1 1 .4-.7 1-4.8 1.3-9.3l.6-8.1h6.8c8.6 0 9.2-.7 10-12.1.7-9.5 0-12-3.9-13.4-3.1-1.2-14.4-1.3-16.2-.1zm12.3 7.6c0 .5-1.7 1.1-3.7 1.3-3 .3-3.8 0-3.8-1.3s.8-1.6 3.8-1.3c2 .2 3.7.7 3.7 1.3zm-.7 9.7c.3 1.4-.4 1.8-3.2 1.8-3.8 0-5.7-1.7-3.5-3.1 2.2-1.4 6.3-.6 6.7 1.3zM523.7 150.5c-1.7 1.6-3.3 16.9-2.3 20.3.8 2.5 1.9 2.8 10.9 3.7l6.7.7v6.1c0 7.1-.6 8.4-3.9 8.8-3.7.6-5 3.4-2.6 5.8 3 2.9 7.7 3.5 10.4 1.4 1.7-1.4 2.4-3.4 3.1-8.8.7-5.9 1.4-28.7 1.1-34.8-.2-2.8-6.1-4.7-14.5-4.7-5.3 0-7.9.4-8.9 1.5zm15.1 7.2c.2.9-1.1 1.3-4.7 1.3-3.9 0-5.1-.4-5.1-1.6 0-1.2 1-1.4 4.7-1.2 2.6.2 4.8.9 5.1 1.5zm0 8.8c.3.3.3.8-.1 1.1-1 1-9.7-.6-9.7-1.8 0-1 8.7-.4 9.8.7zM244.6 157c-16.6 1.9-41.1 7.7-58.1 13.7-15.3 5.5-39.4 17.1-55 26.6-22.6 13.8-38.6 25.1-59 41.6-22 17.8-47 42.9-70.2 70.6-2.1 2.4-2.3 3.7-2.3 14.3l.1 11.7 2.2-3c15.5-21 45.4-53.1 66.7-71.9 40.2-35.4 82.7-62 121.5-76.1 27.8-10.1 47.4-13.8 72-13.8 15.1 0 18.1.3 26.7 2.6 21.6 5.7 40.3 18.4 51.6 34.9 7.7 11.2 16.1 33.5 20.2 53.3 7.3 35.8 3.7 102.1-8.1 150-11.2 45.3-23.9 79.5-54.4 147-8.7 19.2-25.1 50.4-34.7 65.7-2.6 4.3-4.8 8.2-4.8 8.7s-.7 1.4-1.5 2.1c-2.9 2.4-1.4 3 6.9 3 9 0 9 0 13.2-7.5.6-1.1 3.7-6.5 6.9-12 6.6-11.4 29.7-57.1 34.8-69.1 1.9-4.3 6.5-14.9 10.2-23.4 23.5-54.1 40.6-111.2 46.6-156 5.4-40.7 5.1-88.7-.7-114-2.1-9.1-7.6-26.1-11.4-35-14-32.7-38.6-53.2-74.5-62-10.3-2.5-31.8-3.5-44.9-2zM507 185c-1.1.7-1.6 3.2-1.8 9.4-.4 8.2-.3 8.5 2.3 10.2 1.8 1.1 4.8 1.7 9 1.8 8.5.1 9.6-1 10.3-10.7.4-6.6.2-7.7-1.7-9.6-1.8-1.8-3.3-2.1-9.3-2.1-4 0-8 .5-8.8 1zm12 10c0 3.2-.4 3.9-2.6 4.4-3.4.9-5.1-.7-4.9-4.5.2-3.6 1.7-4.8 5.1-4.1 2 .4 2.4 1 2.4 4.2zM407.8 200.1c-1 .5-1.8 1.9-1.8 2.9 0 1.1.8 2.3 1.8 2.9 2.1 1.1 38.5 3.4 46.6 2.9 4.2-.2 6.2-.8 7-2 2.4-3.8-.7-4.6-21.9-5.7-11-.6-22.2-1.3-25-1.6-2.7-.3-5.8 0-6.7.6zM443.6 216.2c-.3 1.8-1.1 9.4-1.8 16.8l-1.3 13.5h-6.8c-6.6 0-9.2 1.2-8.4 4 .7 2.2 7.3 4.5 12.9 4.5 8.3 0 9.2-1.6 10.8-17.7.6-7.1 1-15.3.8-18.3-.3-5.1-.5-5.5-3-5.8-2.4-.3-2.7.1-3.2 3z"/><path d="M412.6 215.3c-1.5 1.1-1.9 3.2-2.4 10.6-.4 8.2-.3 9.3 1.4 10.6 2 1.5 7.8 2.4 15.8 2.7 6.5.2 7.3-1.1 8.1-12.9.7-8.7.6-9.8-1.1-11-2.4-1.8-19.3-1.8-21.8 0zm15.2 10.3c-.4 5.6-2 7-7.1 6-3.6-.7-3.7-.8-3.7-5 0-2.3.3-4.6.7-4.9.3-.4 2.8-.7 5.5-.7h4.9l-.3 4.6zM509.6 226.1c-2.9 4.1 1.6 8.3 6 5.4 2.7-1.7 2.9-2.7 1.4-5.6-1.4-2.5-5.5-2.4-7.4.2zM509.2 249.2c-2.5 2.5-.1 8.8 3.5 8.8 1.5 0 4.3-3.4 4.3-5.3 0-3.7-5.2-6.1-7.8-3.5zM507.7 272.8c-2.3 2.5-2.1 4.8.5 6.6 2.9 2 3.4 2 5.8-.4 1.7-1.7 1.9-2.4.9-4.3-2.2-4.1-4.7-4.7-7.2-1.9zM402 285.1c-.8 1.4-1.1 5.9-.9 12.7.4 11.4.6 11-5.6 12.9-2.3.6-3 1.4-3 3.3 0 2.1.5 2.5 3.6 2.8 2 .2 8.2-.8 13.7-2.2 5.5-1.5 10.3-2.6 10.5-2.6.3 0 1 1.3 1.6 3 1.1 3.2 4 4 6 1.7 1.3-1.6.1-12.3-2.1-19.7-1.2-3.7-1.8-4.5-3.8-4.5-2.4 0-2.5.3-2.5 5.9v5.9l-4.4 1.5c-5.6 1.9-6 1.2-6.2-9.3 0-4.4-.4-9.1-.8-10.5-.9-3.3-4.6-3.9-6.1-.9z"/><path d="M448.3 284.2c-.6.7-1.6 3.5-2.2 6.3-2.9 11.9-8.5 20-21.5 31.2-3.2 2.8-3.3 4-.2 5.5 2.1.9 3.2.6 6.8-1.5 2.4-1.4 5.4-3.7 6.7-5.1 1.4-1.4 2.8-2.6 3.1-2.6.4 0 3.6 2.7 7.1 6 6.6 6.2 9.2 7 11.3 3.8.9-1.5-.1-2.9-6.2-9.1l-7.3-7.3 2.5-5.5c3.9-8.4 6-17.7 4.7-20.5-1.2-2.6-3.3-3.1-4.8-1.2zM55.3 320c-2.8.5-7.5 1.9-10.5 3.1-24.8 9.7-38.1 30.9-36.4 58 1 16.2 5.4 27.5 15.5 40 13.2 16.4 25.9 22 45.4 19.9 21.8-2.4 38.9-10.7 48.7-23.7 8.9-11.8 11.9-23.9 10-40.7-3.1-26.7-17.6-46.5-40.1-54.3-8.3-2.9-23.4-3.9-32.6-2.3zm30.3 10.1c13.3 4.1 25.2 16.2 30.9 31.4 3.3 8.8 4.9 22.9 3.4 30.9-1.5 8.3-7 18.5-13.3 24.5-15.2 14.3-43.8 20.4-60.1 12.7-15.7-7.5-27.7-28.1-29.2-50.1-1.7-26.5 14.6-46.8 41.5-51.5 6.5-1.2 19.5-.1 26.8 2.1z"/><path d="M56.5 339.8c-11.7 4-21 11.9-25.6 21.7-2.5 5.2-2.9 7.2-2.9 15.2 0 11.3 2.2 18.9 8 27.9 9.3 14.2 22.3 19.5 39 16 14.2-3 25-10.5 31.1-21.8 3.1-5.8 3.4-7 3.4-14.8-.1-10.1-2.3-17-8.6-26.7-5.4-8.3-12.6-14.7-19.5-17.2-6.9-2.6-17.9-2.7-24.9-.3zM398.2 351.2c-.6.7-1.2 3.1-1.4 5.3l-.3 4-5.5.3c-6.6.3-9 2.4-6.3 5.4.9 1 3 1.8 4.9 1.8 5.5 0 6.4.8 6.4 5.5 0 5.3-.8 7.5-2.6 7.5-3.1 0-6.5 2.4-6.2 4.4.2 1.6 1.1 2.2 4.1 2.4 3.6.3 3.7.4 3.7 4.3s0 3.9-4 3.9c-4.9 0-7 2.8-4.1 5.4 2.4 2.2 8.6 3.9 11.2 3.1 2.8-.9 4.9-6.3 4.9-12.4 0-5 0-5 4.6-7 3.7-1.7 4.5-2.5 4.2-4.3-.3-2-.9-2.3-4.3-2.3h-4v-9l4.8-.6c4.3-.4 6.6-1.9 6.7-4.1 0-1.1-4.7-3.9-6.2-3.7-3.7.5-4.8-.2-4.8-2.9 0-3.1-2-7.4-3.6-7.9-.6-.2-1.6.2-2.2.9zM423.3 352.7c-.7.2-1.3 1-1.3 1.8 0 2 2.2 3.2 7 3.8 2.5.3 4.6.6 4.8.6.2.1.2 2 0 4.3l-.3 4.3-6.2.5c-6.6.5-8.7 1.7-7.8 4.2.7 1.9 3.6 2.8 8.8 2.8 3.6 0 3.7.1 3.7 3.9 0 2.1-.3 6.6-.6 10l-.7 6.1h-4.2c-6.5 0-6.9-3-1-6 3.8-2 4.7-6 1.4-6-4.4 0-10.1 2.4-10.9 4.6-.5 1.2-1.2 6.4-1.6 11.7l-.7 9.5 2.9 1.5c6.4 3.5 8.4 3.9 20.9 4.4 11.3.5 13.2.3 14.4-1.1 1.5-1.8 3.5-18.9 2.5-21.8-.6-1.9-7.2-4.1-10.7-3.6-1.4.2-2.3 1.1-2.5 2.6-.3 1.8.3 2.5 2.7 3.3 4.5 1.6 3.8 2.9-1.5 2.9h-4.6l.7-9.8c.4-5.3 1-10.1 1.2-10.6.3-.4 2.9-.6 5.7-.3 6.6.6 9.8-.6 9.4-3.5-.3-1.9-1.2-2.4-6.8-3.3l-6.5-1-.3-4.8-.3-4.7h4.9c6.4 0 8.8-2.3 5.3-5.1-2-1.6-4-1.9-14.5-1.8-6.6 0-12.7.3-13.3.6zm6.7 50.7c0 3.1-2.2 4.8-5.7 4.3-2.2-.3-2.9-1-3.1-3-.3-2.1.1-2.6 2.5-3 5.9-.9 6.3-.8 6.3 1.7zm13.5 0c5.4 2.3 4.6 4.6-1.5 4.6-4.9 0-5-.1-5-3 0-3.4 1.3-3.7 6.5-1.6zM415.3 423.2c-.6.7-1.3 3.9-1.6 7-.7 7.5-2 9.6-2.7 4.3-.8-6.7-5.9-5.9-6 .9 0 1.6-.7 3.7-1.6 4.7-2.5 2.8-1.1 4.9 3.3 5 8.6.2 14.9-.3 16-1.3 2.1-1.7 1.5-4.4-1.3-5.7-3.4-1.5-2.6-3.5 2-4.2 4.8-.8 6.4-2.3 4.6-4.4-.7-.8-2.2-1.5-3.4-1.5-2.7 0-4.6-1.8-4.6-4.2 0-2.1-3.2-2.5-4.7-.6zM431.6 426.3c-1.9 2.9-3 14.5-1.8 17.8 1.9 4.9 11.6 7.5 17.1 4.6 3.2-1.6 4.4-5 2.6-7.4-1.3-1.7-1.5-1.7-4.5-.1-3.7 2.1-6.1 2.3-7.8.6-2.3-2.3-1.3-3.8 2.4-3.8 4.5 0 7.4-1.5 7.4-4 0-2-1.6-2.7-7.5-3.2-2.4-.2-3.1-.8-3.3-3-.4-3.5-2.8-4.3-4.6-1.5zM0 446.6v8l5.3 6.5c22.3 26.8 65.9 56.8 104.2 71.7 51.3 19.9 89.8 28.2 124.5 26.9 22.3-.9 43.8-6 53.8-12.9 7.5-5.1 5.4-6.5-6-3.8-39.4 9.3-76.8 8.3-118.1-3-31.6-8.7-60.2-19.4-78.7-29.3-32.9-17.7-60.9-40-76.3-60.7-3.8-5.2-7.4-9.9-7.9-10.5-.4-.5-.8 2.7-.8 7.1zM385.8 442.7c-4.3.5-4.4.6-5.3 12.4-.8 9.3 0 10.4 8.4 11.4 8.3.9 9.8-.1 10.7-7.2 1.1-8.9 1-14.1-.3-15.4-1.3-1.3-7.9-1.9-13.5-1.2zm7.2 10.2c0 5.5-.8 7.1-3.6 7.1-2.2 0-2.4-.4-2.4-4.8 0-5.5.4-6.2 3.7-6.2 2 0 2.3.5 2.3 3.9zM420.1 448.7c-3.4 2.5-6.1 5.1-6.1 5.9 0 2.1 4.4 2.7 7.8 1 3.4-1.7 4.6-1.2 3.1 1.5-.7 1.4-2.1 1.9-5.3 1.9-6.7 0-8.2 1.9-9.6 12.5-.7 4.9-1.4 10.5-1.7 12.2-.7 4.6 2.2 5.6 5.3 2 2.2-2.6 2.5-2.7 9.8-2 7.1.5 7.6.8 7.6 2.9 0 2.6 3.4 5.4 6.7 5.4 3.7 0 5.1-3.6 5.8-15.6.9-13.2.3-14.9-5.5-15.9-4-.7-5-2.1-2.9-4.2 1.5-1.5 0-4.1-3.2-5.6-1.3-.7-2.5-2.2-2.7-3.4-.5-3.7-2.8-3.3-9.1 1.4zm2.4 18.3c.8 1.3-2 2.4-4.1 1.6-2-.8-.9-2.6 1.6-2.6 1 0 2.2.5 2.5 1zm13 1c.4.6-.8 1-2.9 1-2 0-3.6-.5-3.6-1 0-.6 1.3-1 2.9-1 1.7 0 3.3.4 3.6 1zm-13.7 7.7c.2.8-.6 1.3-2.2 1.3-2.6 0-4-1.2-2.9-2.4 1.1-1.1 4.6-.2 5.1 1.1zm14 1c.2.9-.9 1.3-3.7 1.3-3.9 0-5-.8-3.4-2.4 1.1-1.1 6.6-.2 7.1 1.1zM413.7 504.2c-1.4 1-2.3 4.6-3.7 14.3-2.3 15.3-2.5 19.9-.7 21.2.6.6 5 1.6 9.7 2.2 13.4 1.9 13.6 2 11.5 3.5-1.4 1-1.7 2.2-1.3 5.4.4 2.9.2 4.5-.8 5.3-2.1 1.8-1.3 5.1 1.6 6.6 3.3 1.7 11.5 1.7 12.9 0 .6-.8 1.6-6 2.3-11.7 1.2-10 1.1-10.3-1-12-1.2-1-4.2-2.1-6.7-2.5-4-.5-4.6-.9-4.3-2.8.3-1.9 1-2.2 5.5-2.5 9.3-.5 9.4-5.9.1-7.1-5.9-.8-5.9-3.5-.1-3.9 2.9-.2 4.6-.9 5.3-2.2 1.2-2.3-.2-3.5-5.2-4.4-6-1.1-4.7-3 1.6-2.3 5.7.6 7.6-.3 7.6-3.5s-4-4.2-18.5-4.6c-10.8-.3-14.4-.1-15.8 1zm14.3 7.4c0 1.2-.9 1.4-4.2 1.2-5.9-.4-6.3-2.8-.4-2.8 3.5 0 4.6.4 4.6 1.6zm-3.9 7.4c2.2 0 2.9.5 2.9 2 0 1.7-.7 2-4.4 2-2.5 0-4.8-.5-5.1-1-1.1-1.8.4-4.3 2.1-3.6.9.3 2.9.6 4.5.6zm-.7 10.9c1.8.8 2.3 1.5 1.9 3-.6 2.3-1.4 2.4-6.2 1.5-2.4-.5-3.1-1.2-3.1-3 0-1.9.5-2.4 2.4-2.4 1.4 0 3.6.4 5 .9zm14.2 18.6c.1 5.7-.6 7.5-2.8 7.5-1.6 0-1.8-.4-1.2-1.8 1-2.2 1-6.2-.1-8.5-.6-1.6-.4-1.8 1.6-1.5 2.1.3 2.4.9 2.5 4.3zM379.6 517.6c-1.3 1.2-1.6 3.8-1.6 12 0 10.3 0 10.5 2.6 11.4 3.8 1.5 14.9 1.3 16.2-.3.6-.7 1.4-5.6 1.8-10.9.6-8.9.5-9.7-1.5-11.7-1.7-1.7-3.3-2.1-9-2.1-5 0-7.4.4-8.5 1.6zM391 525c.4 1.4.5 4.2.2 6.3-.4 3.6-.6 3.8-3.6 3.5l-3.1-.3.3-5.5c.2-3 .9-5.8 1.5-6.2 2-1.3 4-.4 4.7 2.2zM401.2 544.3c-.6.7-1.4 3.6-1.8 6.5-.5 4.3-.4 5.3 1 5.8 2.5 1 3.8-.8 4.6-6.3 1-6.1-1.1-9.3-3.8-6zM409.2 545.2c-1.8 1.8-1.6 10.7.3 11.4 2.6 1 4.5-1.6 4.5-6 0-3.7-1.3-6.6-3-6.6-.3 0-1.1.5-1.8 1.2z"/><path d="M419.4 547.4c-.3.8-.4 2.9-.2 4.8.2 2.5.8 3.4 2.5 3.6 2.6.4 3.9-3.1 2.9-7.3-.7-2.8-4.3-3.5-5.2-1.1zM400.1 579c-8.3 2-14.2 11.2-8.5 13.4.9.4 2.7-.6 4.3-2.5 4.6-5 14.3-5.7 19.2-1.3 4.2 3.8 1.7 7.7-6.6 10.4-5.2 1.6-7.3 3.5-8.5 7.8-1.1 4.1.1 7.2 2.9 7.2 2.1 0 3.7-1.7 4.3-4.5.2-1.3 2-2.6 5.3-3.8 12.7-4.7 15.8-14.8 7-22.6-5.2-4.6-11.6-5.9-19.4-4.1zM326.1 590.2c-3.4 6.8-3.7 7.8-1.8 7.8 1.7 0 5.8-6.6 6.4-10.6.9-5.3-1.2-4.1-4.6 2.8zM336.3 590.2c-1.7 2.1-5.5 10-5 10.4 1.2 1.2 3.8-1.2 5.7-5.3 2.1-4.4 1.6-8-.7-5.1zM398.2 621.2c-3.3 3.3 1.6 9.1 5.7 6.8 3.9-2 2.1-8-2.4-8-1.2 0-2.6.5-3.3 1.2z"/></svg>